<svg xmlns="http://www.w3.org/2000/svg" xmlns:xlink="http://www.w3.org/1999/xlink" width="2021" height="958" fill="none" xmlns:v="https://vecta.io/nano"><style><![CDATA[.B{stroke-width:4}.C{color-interpolation-filters:sRGB}.D{flood-opacity:0}]]></style><g stroke="#860000" class="B"><use xlink:href="#D"/><use xlink:href="#D" y="-78"/></g><path d="M16 41c56.719-28.931 227.983-69.436 459.289 0s453.528 28.932 535.721 0c99.26-29.43 346.17-70.633 539.72 0s390.83 29.43 465.27 0" stroke="#ae0000" class="B"/><g filter="url(#A)" class="B"><use xlink:href="#D" y="78" stroke="#860000"/></g><use xlink:href="#D" x="-11" y="156" stroke="#000" class="B"/><g filter="url(#B)" class="B"><use xlink:href="#D" x="-11" y="234" stroke="#000"/></g><use xlink:href="#D" x="-11" y="312" stroke="#495057" class="B"/><g filter="url(#C)" class="B"><use xlink:href="#D" x="-11" y="390" stroke="#495057"/></g><g class="B"><g stroke="#c5c5c5"><use xlink:href="#D" x="-11" y="468"/><use xlink:href="#D" x="-11" y="546"/><use xlink:href="#D" x="-11" y="624"/></g><use xlink:href="#D" x="-11" y="702" stroke="#e1e1e1"/></g><defs><filter id="A" x="11.091" y="252" width="2009.64" height="90" filterUnits="userSpaceOnUse" class="C"><feFlood result="A" class="D"/><feColorMatrix in="SourceAlpha" values="0 0 0 0 0 0 0 0 0 0 0 0 0 0 0 0 0 0 127 0" result="B"/><feOffset dy="4"/><feGaussianBlur stdDeviation="2"/><feComposite in2="B" operator="out"/><feColorMatrix values="0 0 0 0 0 0 0 0 0 0 0 0 0 0 0 0 0 0 0.25 0"/><feBlend in2="A"/><feBlend in="SourceGraphic"/></filter><filter id="B" x=".091" y="408" width="2009.64" height="90" filterUnits="userSpaceOnUse" class="C"><feFlood result="A" class="D"/><feColorMatrix in="SourceAlpha" values="0 0 0 0 0 0 0 0 0 0 0 0 0 0 0 0 0 0 127 0" result="B"/><feOffset dy="4"/><feGaussianBlur stdDeviation="2"/><feComposite in2="B" operator="out"/><feColorMatrix values="0 0 0 0 0 0 0 0 0 0 0 0 0 0 0 0 0 0 0.25 0"/><feBlend in2="A"/><feBlend in="SourceGraphic"/></filter><filter id="C" x=".091" y="564" width="2009.64" height="90" filterUnits="userSpaceOnUse" class="C"><feFlood result="A" class="D"/><feColorMatrix in="SourceAlpha" values="0 0 0 0 0 0 0 0 0 0 0 0 0 0 0 0 0 0 127 0" result="B"/><feOffset dy="4"/><feGaussianBlur stdDeviation="2"/><feComposite in2="B" operator="out"/><feColorMatrix values="0 0 0 0 0 0 0 0 0 0 0 0 0 0 0 0 0 0 0.25 0"/><feBlend in2="A"/><feBlend in="SourceGraphic"/></filter><path id="D" d="M16 215c56.719-28.931 227.983-69.436 459.289 0s453.528 28.931 535.721 0c99.26-29.43 346.17-70.633 539.72 0s390.83 29.43 465.27 0"/></defs></svg>